<svg width="1924" height="1266" viewBox="0 0 1924 1266" fill="none" xmlns="http://www.w3.org/2000/svg">
<path d="M327 210.707C260.5 208.207 212.5 243.5 212.5 243.5C212.5 243.5 142.233 210.33 86.5 227.207C15.5 248.707 2 284 2 284V1263.71H1922.5V117.207C1922.5 117.207 1871.5 15.7073 1714 2.70733C1556.5 -10.2926 1476.5 160.207 1476.5 160.207C1476.5 160.207 1400 117.207 1293.5 145.207C1187 173.207 1145 265.207 1145 265.207C1145 265.207 1127.5 221.207 1063.5 205.707C999.5 190.207 968.5 227.207 968.5 227.207C968.5 227.207 895 41.2071 685.5 50.7072C476 60.2072 419 248.707 419 248.707C419 248.707 393.5 213.207 327 210.707Z" fill="#D8D0F8" stroke="black" stroke-width="3"/>
</svg>
