<svg width="1920" height="1080" viewBox="0 0 1920 1080" fill="none" xmlns="http://www.w3.org/2000/svg">
<path d="M146 5.0603C60.5761 -15.0394 0 37.5587 0 37.5587V1080.06H1921V-89.4398C1921 -89.4398 1812 -137.94 1704.5 -68.9397C1597 0.0601654 1620 141.56 1620 141.56C1620 141.56 1585.5 118.56 1549.5 125.06C1513.5 131.56 1489 162.06 1489 162.06C1489 162.06 1472 150.56 1435 155.06C1398 159.56 1373.5 191.06 1373.5 191.06C1373.5 191.06 1348 166.06 1314.5 166.06C1281 166.06 1255 183.06 1255 183.06C1255 183.06 1235 133.56 1183.5 126.06C1132 118.56 1105.5 146.56 1105.5 146.56C1105.5 146.56 1067 55.5603 942.5 35.5603C818 15.5603 753.5 113.06 753.5 113.06C753.5 113.06 715.5 88.5602 678.5 97.0602C641.5 105.56 620.5 133.56 620.5 133.56C620.5 133.56 594.5 120.06 563.5 125.06C532.5 130.06 503.5 162.06 503.5 162.06C503.5 162.06 474 137.56 443.5 136.56C413 135.56 386.5 155.06 386.5 155.06C386.5 155.06 377 125.557 339 104.559C301 83.5602 257.5 104.559 257.5 104.559C257.5 104.559 231.424 25.16 146 5.0603Z" fill="#E2DDF8" stroke="black" stroke-width="3"/>
</svg>
