<svg width="1925" height="1085" viewBox="0 0 1925 1085" fill="none" xmlns="http://www.w3.org/2000/svg">
<path d="M148 113.06C62.5761 92.9606 2 145.559 2 145.559V1083H1923V18.5602C1923 18.5602 1814 -29.9396 1706.5 39.0603C1599 108.06 1622 249.56 1622 249.56C1622 249.56 1587.5 226.56 1551.5 233.06C1515.5 239.56 1491 270.06 1491 270.06C1491 270.06 1474 258.56 1437 263.06C1400 267.56 1375.5 299.06 1375.5 299.06C1375.5 299.06 1350 274.06 1316.5 274.06C1283 274.06 1257 291.06 1257 291.06C1257 291.06 1237 241.56 1185.5 234.06C1134 226.56 1107.5 254.56 1107.5 254.56C1107.5 254.56 1069 163.56 944.5 143.56C820 123.56 755.5 221.06 755.5 221.06C755.5 221.06 717.5 196.56 680.5 205.06C643.5 213.56 622.5 241.56 622.5 241.56C622.5 241.56 596.5 228.06 565.5 233.06C534.5 238.06 505.5 270.06 505.5 270.06C505.5 270.06 476 245.56 445.5 244.56C415 243.56 388.5 263.06 388.5 263.06C388.5 263.06 379 233.557 341 212.559C303 191.56 259.5 212.559 259.5 212.559C259.5 212.559 233.424 133.16 148 113.06Z" fill="#E2DDF8" stroke="black" stroke-width="3"/>
</svg>
