<svg width="91" height="300" viewBox="0 0 91 300" fill="none" xmlns="http://www.w3.org/2000/svg">
<path d="M60.3491 116.86L55.226 124.033L54.2013 111.737C54.2013 111.737 11.0349 83.8992 3.92756 62.4696C-2.72146 42.4217 -0.103702 9.27364 33.7088 2.10219C67.5199 -5.06896 83.9133 24.3915 83.913 43.0877C83.9127 72.7174 62.3983 108.663 62.3983 108.663L67.5215 118.91L60.3491 116.86Z" fill="#EC3737"/>
<path d="M60.3491 116.86L55.226 124.033L54.2013 111.737C54.2013 111.737 11.0349 83.8992 3.92756 62.4696C-2.72146 42.4217 -0.103702 9.27364 33.7088 2.10219C67.5199 -5.06896 83.9133 24.3915 83.913 43.0876C83.9127 72.7174 62.3983 108.663 62.3983 108.663L67.5215 118.91L60.3491 116.86ZM60.3491 116.86C60.3491 116.86 66.1233 138.504 68.479 152.637C70.5285 164.932 57.2083 183.375 60.3491 197.72C65.3673 220.64 90.3598 226.516 89.9964 249.976C89.6552 271.998 62.3983 299.158 62.3983 299.158" stroke="black"/>
<path d="M69.6505 36.8624L52.2319 19.4437C52.2319 19.4437 49.6981 14.6647 51.2073 12.2713C53.3838 8.81962 64.527 12.2716 64.527 12.2716L71.6994 19.4438C71.6994 19.4438 79.9321 32.0918 78.8717 33.7884C77.1751 36.5029 69.6505 36.8624 69.6505 36.8624Z" fill="#D9D9D9" fill-opacity="0.2"/>
<path d="M19.621 43.192C16.341 43.192 13.845 40.728 13.845 37.48C13.845 34.232 16.341 31.768 19.621 31.768C22.357 31.768 24.549 33.496 25.189 35.944H23.909C23.269 34.44 21.653 33.4 19.621 33.4C17.029 33.4 15.077 35.16 15.077 37.48C15.077 39.8 17.029 41.56 19.621 41.56C21.653 41.56 23.269 40.52 23.909 39.016H25.189C24.549 41.464 22.357 43.192 19.621 43.192ZM26.9805 43V31.48H28.0685V43H26.9805ZM30.9464 33.224C30.3704 33.224 29.9384 32.84 29.9384 32.36C29.9384 31.864 30.3704 31.48 30.9464 31.48C31.5224 31.48 31.9544 31.864 31.9544 32.36C31.9544 32.84 31.5224 33.224 30.9464 33.224ZM30.4024 43V34.84H31.4904V43H30.4024ZM37.6483 43.192C35.1683 43.192 33.2963 41.352 33.2963 38.92C33.2963 36.488 35.1683 34.648 37.6483 34.648C39.7283 34.648 41.3763 35.96 41.8243 37.832H40.6243C40.1603 36.856 39.0243 36.2 37.6483 36.2C35.8083 36.2 34.4483 37.368 34.4483 38.92C34.4483 40.472 35.8083 41.64 37.6483 41.64C39.0243 41.64 40.1603 40.984 40.6243 40.008H41.8243C41.3763 41.88 39.7283 43.192 37.6483 43.192ZM49.5899 43L46.1499 39.448L44.6779 40.552V43H43.5899V31.48H44.6779V38.52H45.0299L48.9179 34.84H50.9179L47.0459 38.696L51.0139 43H49.5899ZM60.8556 36.36H58.1996V40.488C58.1996 41.144 58.6316 41.464 59.4796 41.464H60.6956V43H59.3836C57.8636 43 57.0956 42.264 57.0956 40.792V36.36H55.3356V34.84H57.0956V32.712L58.1996 32.44V34.84H60.8556V36.36ZM65.8983 43.192C63.4183 43.192 61.5463 41.352 61.5463 38.92C61.5463 36.488 63.4183 34.648 65.8983 34.648C68.3623 34.648 70.2343 36.488 70.2343 38.92C70.2343 41.352 68.3623 43.192 65.8983 43.192ZM65.8983 41.64C67.7223 41.64 69.0983 40.472 69.0983 38.92C69.0983 37.368 67.7223 36.2 65.8983 36.2C64.0583 36.2 62.6983 37.368 62.6983 38.92C62.6983 40.472 64.0583 41.64 65.8983 41.64ZM20.1014 58.952C20.1014 59.128 20.0854 59.32 20.0694 59.496H12.5814C12.8854 60.744 14.1334 61.624 15.7974 61.624C16.9814 61.624 18.0374 61.24 18.5974 60.648H19.9254C19.2534 62.184 17.6854 63.192 15.7814 63.192C13.2854 63.192 11.4134 61.352 11.4134 58.92C11.4134 56.488 13.2854 54.648 15.7654 54.648C18.2294 54.648 20.1014 56.472 20.1014 58.952ZM15.7654 56.216C14.1494 56.216 12.8854 57.08 12.5814 58.328H18.9494C18.6614 57.08 17.3654 56.216 15.7654 56.216ZM28.5652 54.84L25.5252 58.936L28.5492 63H27.2532L24.7572 59.912H24.3892L21.8932 63H20.5012L23.5732 58.888L20.5972 54.84H21.8932L24.3412 57.912H24.7092L27.1572 54.84H28.5652ZM34.6573 54.648C36.9933 54.648 38.7533 56.488 38.7533 58.92C38.7533 61.352 36.9933 63.192 34.6573 63.192C33.0733 63.192 31.8093 62.28 31.2013 60.904V66.04H30.1133V54.84H31.2013V56.936C31.8093 55.56 33.0733 54.648 34.6573 54.648ZM34.4013 61.64C36.2413 61.64 37.6013 60.472 37.6013 58.92C37.6013 57.368 36.2413 56.2 34.4013 56.2C32.5773 56.2 31.2013 57.368 31.2013 58.92C31.2013 60.472 32.5773 61.64 34.4013 61.64ZM40.5821 63V51.48H41.6701V63H40.5821ZM47.8279 63.192C45.3479 63.192 43.4759 61.352 43.4759 58.92C43.4759 56.488 45.3479 54.648 47.8279 54.648C50.2919 54.648 52.1639 56.488 52.1639 58.92C52.1639 61.352 50.2919 63.192 47.8279 63.192ZM47.8279 61.64C49.6519 61.64 51.0279 60.472 51.0279 58.92C51.0279 57.368 49.6519 56.2 47.8279 56.2C45.9879 56.2 44.6279 57.368 44.6279 58.92C44.6279 60.472 45.9879 61.64 47.8279 61.64ZM61.0127 51.48H62.1007V63H61.0127V60.904C60.4047 62.28 59.1407 63.192 57.5567 63.192C55.2207 63.192 53.4767 61.352 53.4767 58.92C53.4767 56.488 55.2207 54.648 57.5567 54.648C59.1407 54.648 60.4047 55.56 61.0127 56.936V51.48ZM57.8127 61.64C59.6367 61.64 61.0127 60.472 61.0127 58.92C61.0127 57.368 59.6367 56.2 57.8127 56.2C55.9727 56.2 54.6127 57.368 54.6127 58.92C54.6127 60.472 55.9727 61.64 57.8127 61.64ZM72.6014 58.952C72.6014 59.128 72.5854 59.32 72.5694 59.496H65.0814C65.3854 60.744 66.6334 61.624 68.2974 61.624C69.4814 61.624 70.5374 61.24 71.0974 60.648H72.4254C71.7534 62.184 70.1854 63.192 68.2814 63.192C65.7854 63.192 63.9134 61.352 63.9134 58.92C63.9134 56.488 65.7854 54.648 68.2654 54.648C70.7294 54.648 72.6014 56.472 72.6014 58.952ZM68.2654 56.216C66.6494 56.216 65.3854 57.08 65.0814 58.328H71.4494C71.1614 57.08 69.8654 56.216 68.2654 56.216Z" fill="white"/>
</svg>
