<svg width="2785" height="1123" viewBox="0 0 2785 1123" fill="none" xmlns="http://www.w3.org/2000/svg">
<g filter="url(#filter0_di_242_102)">
<path d="M1010 153.061C924.576 132.962 852.5 213.501 852.5 213.501C852.5 213.501 842.5 157.001 782.5 141.001C722.5 125.001 692.5 172.501 692.5 172.501C692.5 172.501 692.5 110.501 621.5 86.0011C550.5 61.5011 513 110.501 513 110.501C513 110.501 484 49.5011 405.5 35.0011C327 20.5011 257.5 86.0011 257.5 86.0011C257.5 86.0011 209.5 5 110 22.0005C10.5 39.001 9.00006 127.001 9.00006 127.001V1123H2785V58.5614C2785 58.5614 2676 10.0616 2568.5 79.0614C2461 148.061 2484 289.561 2484 289.561C2484 289.561 2449.5 266.561 2413.5 273.061C2377.5 279.561 2353 310.061 2353 310.061C2353 310.061 2336 298.561 2299 303.061C2262 307.561 2237.5 339.061 2237.5 339.061C2237.5 339.061 2212 314.061 2178.5 314.061C2145 314.061 2119 331.061 2119 331.061C2119 331.061 2099 281.561 2047.5 274.061C1996 266.561 1969.5 294.561 1969.5 294.561C1969.5 294.561 1931 203.561 1806.5 183.561C1682 163.561 1617.5 261.061 1617.5 261.061C1617.5 261.061 1579.5 236.561 1542.5 245.061C1505.5 253.561 1484.5 281.561 1484.5 281.561C1484.5 281.561 1458.5 268.061 1427.5 273.061C1396.5 278.061 1367.5 310.061 1367.5 310.061C1367.5 310.061 1338 285.561 1307.5 284.561C1277 283.561 1250.5 303.061 1250.5 303.061C1250.5 303.061 1241 273.558 1203 252.56C1165 231.561 1121.5 252.56 1121.5 252.56C1121.5 252.56 1095.42 173.161 1010 153.061Z" fill="#C3B6FF"/>
</g>
<defs>
<filter id="filter0_di_242_102" x="6.10352e-05" y="0.655273" width="2785" height="1126.35" filterUnits="userSpaceOnUse" color-interpolation-filters="sRGB">
<feFlood flood-opacity="0" result="BackgroundImageFix"/>
<feColorMatrix in="SourceAlpha" type="matrix" values="0 0 0 0 0 0 0 0 0 0 0 0 0 0 0 0 0 0 127 0" result="hardAlpha"/>
<feOffset dx="-5" dy="-15"/>
<feGaussianBlur stdDeviation="2"/>
<feComposite in2="hardAlpha" operator="out"/>
<feColorMatrix type="matrix" values="0 0 0 0 0 0 0 0 0 0 0 0 0 0 0 0 0 0 0.25 0"/>
<feBlend mode="normal" in2="BackgroundImageFix" result="effect1_dropShadow_242_102"/>
<feBlend mode="normal" in="SourceGraphic" in2="effect1_dropShadow_242_102" result="shape"/>
<feColorMatrix in="SourceAlpha" type="matrix" values="0 0 0 0 0 0 0 0 0 0 0 0 0 0 0 0 0 0 127 0" result="hardAlpha"/>
<feOffset dy="13"/>
<feGaussianBlur stdDeviation="2"/>
<feComposite in2="hardAlpha" operator="arithmetic" k2="-1" k3="1"/>
<feColorMatrix type="matrix" values="0 0 0 0 0.876667 0 0 0 0 0.873744 0 0 0 0 0.873744 0 0 0 0.5 0"/>
<feBlend mode="normal" in2="shape" result="effect2_innerShadow_242_102"/>
</filter>
</defs>
</svg>
