<svg width="2881" height="1185" viewBox="0 0 2881 1185" fill="none" xmlns="http://www.w3.org/2000/svg">
<g filter="url(#filter0_di_263_109)">
<path d="M1228.12 227.797C1159.25 225.296 1109.54 260.604 1109.54 260.604C1109.54 260.604 1036.77 227.42 979.045 244.304C905.512 265.813 876.531 306 876.531 306C876.531 306 858.031 205.5 722.031 169C586.031 132.5 520.531 227.797 520.531 227.797C520.531 227.797 520.531 110.5 391.531 86C262.531 61.5 202.531 152.5 202.531 152.5C202.531 152.5 171.031 75.8515 88.0309 86C5.03098 96.1485 9.03091 169 9.03091 169V1185H2880.53V134.257C2880.53 134.257 2827.71 32.7132 2664.59 19.7076C2501.48 6.70209 2418.62 177.275 2418.62 177.275C2418.62 177.275 2339.39 134.257 2229.1 162.269C2118.8 190.281 2075.3 282.32 2075.3 282.32C2075.3 282.32 2057.18 238.301 1990.89 222.795C1924.61 207.288 1892.5 244.304 1892.5 244.304C1892.5 244.304 1816.38 58.224 1599.41 67.7281C1382.44 77.2322 1323.4 265.813 1323.4 265.813C1323.4 265.813 1297 230.298 1228.12 227.797Z" fill="#6EA3FF"/>
</g>
<defs>
<filter id="filter0_di_263_109" x="0" y="0" width="2880.53" height="1189" filterUnits="userSpaceOnUse" color-interpolation-filters="sRGB">
<feFlood flood-opacity="0" result="BackgroundImageFix"/>
<feColorMatrix in="SourceAlpha" type="matrix" values="0 0 0 0 0 0 0 0 0 0 0 0 0 0 0 0 0 0 127 0" result="hardAlpha"/>
<feOffset dx="-5" dy="-15"/>
<feGaussianBlur stdDeviation="2"/>
<feComposite in2="hardAlpha" operator="out"/>
<feColorMatrix type="matrix" values="0 0 0 0 0 0 0 0 0 0 0 0 0 0 0 0 0 0 0.25 0"/>
<feBlend mode="normal" in2="BackgroundImageFix" result="effect1_dropShadow_263_109"/>
<feBlend mode="normal" in="SourceGraphic" in2="effect1_dropShadow_263_109" result="shape"/>
<feColorMatrix in="SourceAlpha" type="matrix" values="0 0 0 0 0 0 0 0 0 0 0 0 0 0 0 0 0 0 127 0" result="hardAlpha"/>
<feOffset dy="16"/>
<feGaussianBlur stdDeviation="2"/>
<feComposite in2="hardAlpha" operator="arithmetic" k2="-1" k3="1"/>
<feColorMatrix type="matrix" values="0 0 0 0 1 0 0 0 0 1 0 0 0 0 1 0 0 0 0.25 0"/>
<feBlend mode="normal" in2="shape" result="effect2_innerShadow_263_109"/>
</filter>
</defs>
</svg>
