<svg width="1930" height="1100" viewBox="0 0 1930 1100" fill="none" xmlns="http://www.w3.org/2000/svg">
<g filter="url(#filter0_di_242_102)">
<path d="M155 130.06C69.5761 109.961 9 162.559 9 162.559V1100H1930V35.5602C1930 35.5602 1821 -12.9396 1713.5 56.0603C1606 125.06 1629 266.56 1629 266.56C1629 266.56 1594.5 243.56 1558.5 250.06C1522.5 256.56 1498 287.06 1498 287.06C1498 287.06 1481 275.56 1444 280.06C1407 284.56 1382.5 316.06 1382.5 316.06C1382.5 316.06 1357 291.06 1323.5 291.06C1290 291.06 1264 308.06 1264 308.06C1264 308.06 1244 258.56 1192.5 251.06C1141 243.56 1114.5 271.56 1114.5 271.56C1114.5 271.56 1076 180.56 951.5 160.56C827 140.56 762.5 238.06 762.5 238.06C762.5 238.06 724.5 213.56 687.5 222.06C650.5 230.56 629.5 258.56 629.5 258.56C629.5 258.56 603.5 245.06 572.5 250.06C541.5 255.06 512.5 287.06 512.5 287.06C512.5 287.06 483 262.56 452.5 261.56C422 260.56 395.5 280.06 395.5 280.06C395.5 280.06 386 250.557 348 229.559C310 208.56 266.5 229.559 266.5 229.559C266.5 229.559 240.424 150.16 155 130.06Z" fill="#C3B6FF"/>
</g>
<defs>
<filter id="filter0_di_242_102" x="0" y="0" width="1930" height="1104" filterUnits="userSpaceOnUse" color-interpolation-filters="sRGB">
<feFlood flood-opacity="0" result="BackgroundImageFix"/>
<feColorMatrix in="SourceAlpha" type="matrix" values="0 0 0 0 0 0 0 0 0 0 0 0 0 0 0 0 0 0 127 0" result="hardAlpha"/>
<feOffset dx="-5" dy="-15"/>
<feGaussianBlur stdDeviation="2"/>
<feComposite in2="hardAlpha" operator="out"/>
<feColorMatrix type="matrix" values="0 0 0 0 0 0 0 0 0 0 0 0 0 0 0 0 0 0 0.25 0"/>
<feBlend mode="normal" in2="BackgroundImageFix" result="effect1_dropShadow_242_102"/>
<feBlend mode="normal" in="SourceGraphic" in2="effect1_dropShadow_242_102" result="shape"/>
<feColorMatrix in="SourceAlpha" type="matrix" values="0 0 0 0 0 0 0 0 0 0 0 0 0 0 0 0 0 0 127 0" result="hardAlpha"/>
<feOffset dy="13"/>
<feGaussianBlur stdDeviation="2"/>
<feComposite in2="hardAlpha" operator="arithmetic" k2="-1" k3="1"/>
<feColorMatrix type="matrix" values="0 0 0 0 0.876667 0 0 0 0 0.873744 0 0 0 0 0.873744 0 0 0 0.5 0"/>
<feBlend mode="normal" in2="shape" result="effect2_innerShadow_242_102"/>
</filter>
</defs>
</svg>
