<svg width="2881" height="1185" viewBox="0 0 2881 1185" fill="none" xmlns="http://www.w3.org/2000/svg">
<g filter="url(#filter0_di_242_101)">
<path d="M1228.59 227.797C1159.72 225.296 1110.01 260.604 1110.01 260.604C1110.01 260.604 1037.23 227.42 979.514 244.304C905.982 265.813 877 306 877 306C877 306 858.5 205.5 722.5 169C586.5 132.5 521 227.797 521 227.797C521 227.797 521 110.5 392 86C263 61.5 203 152.5 203 152.5C203 152.5 171.5 75.8515 88.5 86C5.50009 96.1485 9.50003 169 9.50003 169V1185H2881V134.257C2881 134.257 2828.18 32.7132 2665.06 19.7076C2501.95 6.70209 2419.09 177.275 2419.09 177.275C2419.09 177.275 2339.86 134.257 2229.56 162.269C2119.27 190.281 2075.77 282.32 2075.77 282.32C2075.77 282.32 2057.64 238.301 1991.36 222.795C1925.08 207.288 1892.97 244.304 1892.97 244.304C1892.97 244.304 1816.85 58.224 1599.88 67.7281C1382.91 77.2322 1323.87 265.813 1323.87 265.813C1323.87 265.813 1297.46 230.298 1228.59 227.797Z" fill="#A18CFF"/>
</g>
<defs>
<filter id="filter0_di_242_101" x="0.469116" y="0" width="2880.53" height="1189" filterUnits="userSpaceOnUse" color-interpolation-filters="sRGB">
<feFlood flood-opacity="0" result="BackgroundImageFix"/>
<feColorMatrix in="SourceAlpha" type="matrix" values="0 0 0 0 0 0 0 0 0 0 0 0 0 0 0 0 0 0 127 0" result="hardAlpha"/>
<feOffset dx="-5" dy="-15"/>
<feGaussianBlur stdDeviation="2"/>
<feComposite in2="hardAlpha" operator="out"/>
<feColorMatrix type="matrix" values="0 0 0 0 0 0 0 0 0 0 0 0 0 0 0 0 0 0 0.25 0"/>
<feBlend mode="normal" in2="BackgroundImageFix" result="effect1_dropShadow_242_101"/>
<feBlend mode="normal" in="SourceGraphic" in2="effect1_dropShadow_242_101" result="shape"/>
<feColorMatrix in="SourceAlpha" type="matrix" values="0 0 0 0 0 0 0 0 0 0 0 0 0 0 0 0 0 0 127 0" result="hardAlpha"/>
<feOffset dy="16"/>
<feGaussianBlur stdDeviation="2"/>
<feComposite in2="hardAlpha" operator="arithmetic" k2="-1" k3="1"/>
<feColorMatrix type="matrix" values="0 0 0 0 1 0 0 0 0 1 0 0 0 0 1 0 0 0 0.25 0"/>
<feBlend mode="normal" in2="shape" result="effect2_innerShadow_242_101"/>
</filter>
</defs>
</svg>
