<svg width="87" height="293" viewBox="0 0 87 293" fill="none" xmlns="http://www.w3.org/2000/svg">
<path d="M43.5 105C41.6915 102.196 40.5 97 40.5 97C40.5 97 36.3195 101 33 101C29.6805 101 25.5 97 25.5 97C25.5 97 29.2621 102.305 27.5 105C26.492 106.542 23.5 107.5 23.5 107.5C23.5 107.5 30.791 111.787 36 112.5C41.2555 113.219 49.5 111 49.5 111C49.5 111 45.2961 107.785 43.5 105Z" fill="#EC3737"/>
<path d="M31 78.5C29.4902 81.6316 25.5 85.5 25.5 85.5C25.5 85.5 30.288 84.3939 33 85.5C35.4324 86.4921 38 90 38 90C38 90 38.8355 84.1147 38 80.5C37.0558 76.4152 33 71 33 71C33 71 32.3164 75.7695 31 78.5Z" fill="#EC3737"/>
<path d="M17.5 83.5C16.0786 85.7435 15.5 90 15.5 90C15.5 90 10.0517 82.8754 8.5 77.5C6.82037 71.6813 8 62 8 62C8 62 10.4321 68.7387 14 71C16.8803 72.8255 22.5 73 22.5 73C22.5 73 19.753 75.1745 20 77C20.1526 78.1283 21.5 79.5 21.5 79.5C21.5 79.5 18.6823 81.6339 17.5 83.5Z" fill="#EC3737"/>
<path d="M14 50C12.4585 52.4363 10.5 56.5 10.5 56.5C10.5 56.5 8.94158 51.2078 10.5 48.5C12.1558 45.623 18 44.5 18 44.5C18 44.5 15.4201 47.7557 14 50Z" fill="#EC3737"/>
<path d="M6 36C3.73865 36.7532 1 39.5 1 39.5C1 39.5 2.49216 33.5865 4 30C5.45567 26.5376 8.5 21.5 8.5 21.5C8.5 21.5 9.01543 26.18 10 29C11.0942 32.1339 14 36.5 14 36.5C14 36.5 8.96989 35.0108 6 36Z" fill="#EC3737"/>
<path d="M34.5 10.5C32.3234 12.5362 30.5 17 30.5 17C30.5 17 29.2238 13.5171 28 11.5C26.9872 9.8306 25 7.5 25 7.5C25 7.5 29.0135 4.28153 32 3C35.1338 1.65526 40.5 1 40.5 1L41 7C41 7 36.6054 8.53047 34.5 10.5Z" fill="#EC3737"/>
<path d="M55.5 3.5C55.5 3.5 56.2826 9.29564 56 13C55.7117 16.7803 54 22.5 54 22.5C54 22.5 58.6328 20.7856 61.5 21.5C63.9704 22.1155 67 25 67 25C67 25 66.3765 21.8653 67.5 20.5C68.4449 19.3517 71 19 71 19C71 19 68.3305 12.9925 65.5 10C62.2994 6.61613 55.5 3.5 55.5 3.5Z" fill="#EC3737"/>
<path d="M67.5 39C66.7953 37.8127 65 36.5 65 36.5C65 36.5 67.8186 35.102 69.5 34C71.3621 32.7797 74 30.5 74 30.5C74 30.5 74.0826 33.2818 74.5 35C74.8939 36.6212 76 39 76 39C76 39 73.8505 39.8775 72.5 40.5C70.9139 41.2311 68.5 42.5 68.5 42.5C68.5 42.5 68.2255 40.2224 67.5 39Z" fill="#EC3737"/>
<path d="M73 58.5C68.8557 60.2303 62 58 62 58C62 58 63.5011 61.7145 63.5 64C63.4986 66.7957 60.5 70.5 60.5 70.5C60.5 70.5 66.9418 69.8438 70.5 71.5C73.2652 72.7871 76.5 76.5 76.5 76.5C76.5 76.5 81 71.5 83 62.5C85 53.5 82 47 82 47C82 47 78.2626 56.3028 73 58.5Z" fill="#EC3737"/>
<path d="M49.5 73.5C48.1816 73.9944 46.5 75.5 46.5 75.5C46.5 75.5 46.0178 73.9152 45.5 73C44.8844 71.9118 43.5 70.5 43.5 70.5C43.5 70.5 45.7074 69.3986 47 68.5C48.4781 67.4724 50.5 65.5 50.5 65.5C50.5 65.5 50.6791 67.9588 51 69.5C51.2897 70.8917 52 73 52 73C52 73 50.4323 73.1504 49.5 73.5Z" fill="#EC3737"/>
<path d="M49.5 50C49.3253 48.0848 47.5 45.5 47.5 45.5H52H57C57 45.5 54.8706 48.9888 54.5 51.5C54.1568 53.8261 55 57.5 55 57.5L49 53.5C49 53.5 49.6254 51.375 49.5 50Z" fill="#EC3737"/>
<path d="M42 26.5C40.946 27.3919 39.5 29 39.5 29L38 24.5C38 24.5 39.2549 23.9554 40 23.5C40.8331 22.9909 42 22 42 22L44 25C44 25 42.7453 25.8694 42 26.5Z" fill="#EC3737"/>
<path d="M21.5 54L17 57L19 60C19 60 19.7775 58.9053 20.5 58.5C21.2022 58.1061 22.5 58 22.5 58L21.5 54Z" fill="#EC3737"/>
<path d="M56.3491 109.86C56.3491 109.86 62.1233 131.504 64.479 145.637C66.5285 157.932 53.2083 176.375 56.3491 190.72C61.3673 213.64 86.3598 219.516 85.9964 242.976C85.6552 264.998 58.3983 292.158 58.3983 292.158M40.5 97C40.5 97 41.6915 102.196 43.5 105C45.2961 107.785 49.5 111 49.5 111C49.5 111 41.2555 113.219 36 112.5C30.791 111.787 23.5 107.5 23.5 107.5C23.5 107.5 26.492 106.542 27.5 105C29.2621 102.305 25.5 97 25.5 97C25.5 97 29.6805 101 33 101C36.3195 101 40.5 97 40.5 97ZM25.5 85.5C25.5 85.5 29.4902 81.6316 31 78.5C32.3164 75.7695 33 71 33 71C33 71 37.0558 76.4152 38 80.5C38.8355 84.1147 38 90 38 90C38 90 35.4324 86.4921 33 85.5C30.288 84.3939 25.5 85.5 25.5 85.5ZM15.5 90C15.5 90 16.0786 85.7435 17.5 83.5C18.6823 81.6339 21.5 79.5 21.5 79.5C21.5 79.5 20.1526 78.1283 20 77C19.753 75.1745 22.5 73 22.5 73C22.5 73 16.8803 72.8255 14 71C10.4321 68.7387 8 62 8 62C8 62 6.82037 71.6813 8.5 77.5C10.0517 82.8754 15.5 90 15.5 90ZM10.5 56.5C10.5 56.5 12.4585 52.4363 14 50C15.4201 47.7557 18 44.5 18 44.5C18 44.5 12.1558 45.623 10.5 48.5C8.94158 51.2078 10.5 56.5 10.5 56.5ZM1 39.5C1 39.5 3.73865 36.7532 6 36C8.96989 35.0108 14 36.5 14 36.5C14 36.5 11.0942 32.1339 10 29C9.01543 26.18 8.5 21.5 8.5 21.5C8.5 21.5 5.45567 26.5376 4 30C2.49216 33.5865 1 39.5 1 39.5ZM30.5 17C30.5 17 32.3234 12.5362 34.5 10.5C36.6054 8.53047 41 7 41 7L40.5 1C40.5 1 35.1338 1.65526 32 3C29.0135 4.28153 25 7.5 25 7.5C25 7.5 26.9872 9.8306 28 11.5C29.2238 13.5171 30.5 17 30.5 17ZM56 13C56.2826 9.29564 55.5 3.5 55.5 3.5C55.5 3.5 62.2994 6.61613 65.5 10C68.3305 12.9925 71 19 71 19C71 19 68.4449 19.3517 67.5 20.5C66.3765 21.8653 67 25 67 25C67 25 63.9704 22.1155 61.5 21.5C58.6328 20.7856 54 22.5 54 22.5C54 22.5 55.7116 16.7803 56 13ZM65 36.5C65 36.5 66.7953 37.8127 67.5 39C68.2255 40.2224 68.5 42.5 68.5 42.5C68.5 42.5 70.9139 41.2311 72.5 40.5C73.8505 39.8775 76 39 76 39C76 39 74.8939 36.6212 74.5 35C74.0826 33.2818 74 30.5 74 30.5C74 30.5 71.3621 32.7797 69.5 34C67.8186 35.102 65 36.5 65 36.5ZM62 58C62 58 68.8557 60.2303 73 58.5C78.2626 56.3028 82 47 82 47C82 47 85 53.5 83 62.5C81 71.5 76.5 76.5 76.5 76.5C76.5 76.5 73.2652 72.7871 70.5 71.5C66.9418 69.8438 60.5 70.5 60.5 70.5C60.5 70.5 63.4986 66.7957 63.5 64C63.5011 61.7145 62 58 62 58ZM46.5 75.5C46.5 75.5 48.1816 73.9944 49.5 73.5C50.4323 73.1504 52 73 52 73C52 73 51.2897 70.8917 51 69.5C50.6791 67.9588 50.5 65.5 50.5 65.5C50.5 65.5 48.4781 67.4724 47 68.5C45.7074 69.3986 43.5 70.5 43.5 70.5C43.5 70.5 44.8844 71.9118 45.5 73C46.0178 73.9152 46.5 75.5 46.5 75.5ZM47.5 45.5C47.5 45.5 49.3253 48.0848 49.5 50C49.6254 51.375 49 53.5 49 53.5L55 57.5C55 57.5 54.1568 53.8261 54.5 51.5C54.8706 48.9888 57 45.5 57 45.5H52H47.5ZM39.5 29C39.5 29 40.946 27.3919 42 26.5C42.7453 25.8694 44 25 44 25L42 22C42 22 40.8331 22.9909 40 23.5C39.2549 23.9554 38 24.5 38 24.5L39.5 29ZM17 57L21.5 54L22.5 58C22.5 58 21.2022 58.1061 20.5 58.5C19.7775 58.9053 19 60 19 60L17 57Z" stroke="black"/>
</svg>
