<svg width="17" height="39" viewBox="0 0 17 39" fill="none" xmlns="http://www.w3.org/2000/svg">
<path d="M11.3714 3.45329C12.174 3.24817 12.6584 2.43123 12.4533 1.6286C12.2482 0.825964 11.4312 0.341586 10.6286 0.546708L11.3714 3.45329ZM2 12.809L0.5 12.809L2 12.809ZM8.18751 22.7865L6.71568 23.0759L8.18751 22.7865ZM2.74997 39L16.393 28.3291L0.330155 21.8494L2.74997 39ZM10.6286 0.546708C9.49504 0.836399 8.31781 1.49728 7.23132 2.30141C6.127 3.11874 5.03113 4.1476 4.05931 5.2699C3.08852 6.391 2.21522 7.63575 1.57777 8.89567C0.948885 10.1387 0.499985 11.4942 0.5 12.809L3.5 12.809C3.49999 12.1416 3.74051 11.2662 4.25465 10.25C4.76023 9.25076 5.48357 8.208 6.32722 7.23372C7.16983 6.26063 8.10617 5.38621 9.01604 4.7128C9.94374 4.02619 10.7627 3.60886 11.3714 3.45329L10.6286 0.546708ZM0.5 12.809C0.500018 14.4288 0.902378 15.7126 1.56141 16.7841C2.19905 17.8209 3.03917 18.5919 3.77118 19.2258C5.31484 20.5627 6.38012 21.369 6.71568 23.0759L9.65934 22.4972C9.08662 19.584 7.05818 18.1038 5.73516 16.958C5.03384 16.3507 4.49739 15.8313 4.11678 15.2125C3.75757 14.6284 3.50001 13.8915 3.5 12.809L0.5 12.809ZM6.71568 23.0759C6.82015 23.6072 6.7255 24.6296 6.34737 26.1081L9.25383 26.8514C9.6407 25.3387 9.9042 23.7427 9.65934 22.4972L6.71568 23.0759Z" fill="black"/>
</svg>
