<svg width="261" height="261" viewBox="0 0 261 261" fill="none" xmlns="http://www.w3.org/2000/svg">
<path d="M228.375 139.091C226.664 157.603 219.717 175.244 208.346 189.951C196.975 204.658 181.65 215.823 164.166 222.139C146.681 228.454 127.759 229.66 109.614 225.614C91.4696 221.568 74.8523 212.438 61.707 199.293C48.5616 186.147 39.4319 169.53 35.386 151.385C31.3402 133.241 32.5456 114.319 38.8612 96.8342C45.1767 79.3495 56.3413 64.0251 71.0485 52.6541C85.7556 41.283 103.397 34.3357 121.909 32.625C111.071 47.2874 105.855 65.3528 107.211 83.5354C108.567 101.718 116.404 118.81 129.297 131.703C142.19 144.596 159.282 152.433 177.464 153.788C195.647 155.144 213.712 149.929 228.375 139.091Z" fill="#D6D6D6" stroke="black" stroke-width="3" stroke-linecap="round" stroke-linejoin="round"/>
</svg>
