<svg width="865" height="153" viewBox="0 0 865 153" fill="none" xmlns="http://www.w3.org/2000/svg">
<path d="M638.246 77.0569C636.881 69.1107 633.103 19.5574 639.673 19.0465C646.243 18.5355 667.387 52.5455 667.387 52.5455L719.077 47.9472C719.077 47.9472 686.365 12.0979 688.588 5.98943C690.503 0.728569 703.842 3.14683 707.897 5.56794C728.44 17.834 758.251 44.1146 758.251 44.1146C758.251 44.1146 824.806 39.6054 836.553 43.8809C845.479 47.1298 864.314 58.2425 861.92 64.8203C858.42 74.4354 839.021 75.1084 839.021 75.1084L786.476 82.056C786.476 82.056 734.087 135.352 720.971 146.541C717.91 149.151 699.499 152.028 699.397 148.798C699.227 143.416 735.299 85.2447 735.299 85.2447C735.299 85.2447 705.568 85.0651 680.406 85.4848C672.251 85.6208 639.627 85.0958 638.246 77.0569Z" fill="white"/>
<path d="M758.251 44.1146C758.251 44.1146 824.806 39.6054 836.553 43.8809C845.479 47.1298 864.314 58.2425 861.92 64.8203C858.42 74.4354 839.021 75.1084 839.021 75.1084L786.476 82.056C786.476 82.056 734.087 135.352 720.971 146.541C717.91 149.151 699.499 152.028 699.397 148.798C699.227 143.416 735.299 85.2447 735.299 85.2447C735.299 85.2447 705.568 85.0651 680.406 85.4848C672.251 85.6208 639.627 85.0958 638.246 77.0569C636.881 69.1107 633.103 19.5574 639.673 19.0465C646.243 18.5355 667.387 52.5455 667.387 52.5455L719.077 47.9472M758.251 44.1146C758.251 44.1146 728.44 17.834 707.897 5.56794C703.842 3.14683 690.503 0.728569 688.588 5.98943C686.365 12.0979 719.077 47.9472 719.077 47.9472M758.251 44.1146L719.077 47.9472" stroke="black" stroke-width="5"/>
<path d="M636 59L569 59" stroke="black" stroke-width="5"/>
<rect x="2.5" y="13.5" width="564" height="90" rx="7.5" fill="#C3B6FF" stroke="black" stroke-width="5"/>
</svg>
